<svg xmlns="http://www.w3.org/2000/svg" width="256" height="256" viewBox="0 0 778 778"><path d="M334 0c191.333 0 288.333.667 291 2 4 2 7 6 9 12 .667 2 1 32.333 1 91 0 57.333-1 87.333-3 90-2.667 5.333-6.5 8.5-11.5 9.5s-9.833-.167-14.5-3.5c-4-4-6.333-11-7-21-3.333-44.667-26-80.667-68-108-30-20.667-65.667-32.667-107-36h-9v286c0 192.667.333 291 1 295 1.333 14.667 5.5 23.667 12.5 27 7 3.333 22.5 5.333 46.5 6 14.667 0 22.667.333 24 1 8.667 0 13 5.333 13 16 0 9.333-3.667 15-11 17-1.333.667-57 1-167 1-86.667 0-136.5-.167-149.5-.5-13-.333-20.833-1.833-23.5-4.5-4-2.667-6-7-6-13 0-8.667 4-14 12-16h4.5c2.333 0 5.5-.167 9.5-.5 4-.333 7.667-.5 11-.5 24-.667 39.5-2.667 46.5-6s11.167-12.333 12.5-27c.667-4 1-102.333 1-295V36h-9c-39.333 3.333-74.333 14.833-105 34.5S86.333 115.333 75 146c-3.333 9.333-5.667 20.667-7 34-.667 11.333-3.333 18.667-8 22-11.333 7.333-20 5-26-7-1.333-2.667-2-33.333-2-92 0-59.333.667-90.333 2-93 3.333-4.667 6.667-7.667 10-9 1.333-.667 98-1 290-1zM68 87c12.667-17.333 29.333-32.333 50-45l10-7H68v52zm312-52h-93v407c-.667 126-2.333 192-5 198l-1 3-3 7h111l-3-7c-2.667-8-4.167-20.333-4.5-37-.333-16.667-.833-109-1.5-277V35zm220 53V35h-61l10 7c18.667 12 34.333 26 47 42l4 4z"/></svg>