<?xml version="1.0" encoding="UTF-8"?>
<svg xmlns="http://www.w3.org/2000/svg" xmlns:xlink="http://www.w3.org/1999/xlink" width="40" height="12" viewBox="0 0 40 12">
<defs>
<g>
<g id="glyph-0-0">
<path d="M 3.96875 -6.9375 C 3.921875 -7.0625 3.890625 -7.140625 3.734375 -7.140625 C 3.578125 -7.140625 3.546875 -7.078125 3.5 -6.9375 L 1.4375 -0.984375 C 1.25 -0.46875 0.859375 -0.3125 0.3125 -0.3125 L 0.3125 0 C 0.546875 -0.015625 0.984375 -0.03125 1.328125 -0.03125 C 1.640625 -0.03125 2.15625 -0.015625 2.484375 0 L 2.484375 -0.3125 C 1.984375 -0.3125 1.734375 -0.5625 1.734375 -0.8125 C 1.734375 -0.84375 1.75 -0.953125 1.75 -0.96875 L 2.21875 -2.265625 L 4.671875 -2.265625 L 5.203125 -0.75 C 5.21875 -0.703125 5.234375 -0.640625 5.234375 -0.609375 C 5.234375 -0.3125 4.671875 -0.3125 4.40625 -0.3125 L 4.40625 0 C 4.765625 -0.03125 5.46875 -0.03125 5.84375 -0.03125 C 6.265625 -0.03125 6.734375 -0.015625 7.140625 0 L 7.140625 -0.3125 L 6.96875 -0.3125 C 6.375 -0.3125 6.234375 -0.375 6.125 -0.703125 Z M 3.4375 -5.828125 L 4.5625 -2.578125 L 2.328125 -2.578125 Z M 3.4375 -5.828125 "/>
</g>
<g id="glyph-0-1">
<path d="M 2.21875 -3.65625 L 2.21875 -6.09375 C 2.21875 -6.4375 2.234375 -6.5 2.703125 -6.5 L 3.9375 -6.5 C 4.90625 -6.5 5.25 -5.65625 5.25 -5.125 C 5.25 -4.484375 4.765625 -3.65625 3.65625 -3.65625 Z M 4.5625 -3.5625 C 5.53125 -3.75 6.21875 -4.390625 6.21875 -5.125 C 6.21875 -5.984375 5.296875 -6.8125 4 -6.8125 L 0.359375 -6.8125 L 0.359375 -6.5 L 0.59375 -6.5 C 1.359375 -6.5 1.390625 -6.390625 1.390625 -6.03125 L 1.390625 -0.78125 C 1.390625 -0.421875 1.359375 -0.3125 0.59375 -0.3125 L 0.359375 -0.3125 L 0.359375 0 L 4.265625 0 C 5.59375 0 6.484375 -0.890625 6.484375 -1.828125 C 6.484375 -2.6875 5.671875 -3.4375 4.5625 -3.5625 Z M 3.953125 -0.3125 L 2.703125 -0.3125 C 2.234375 -0.3125 2.21875 -0.375 2.21875 -0.703125 L 2.21875 -3.421875 L 4.09375 -3.421875 C 5.078125 -3.421875 5.5 -2.5 5.5 -1.828125 C 5.5 -1.125 4.96875 -0.3125 3.953125 -0.3125 Z M 3.953125 -0.3125 "/>
</g>
<g id="glyph-1-0">
<path d="M 1.46875 -4.296875 C 1.46875 -4.5 1.296875 -4.703125 1.0625 -4.703125 C 0.859375 -4.703125 0.671875 -4.53125 0.671875 -4.296875 C 0.671875 -4.046875 0.875 -3.890625 1.0625 -3.890625 C 1.296875 -3.890625 1.46875 -4.0625 1.46875 -4.296875 Z M 0.40625 -3 L 0.40625 -2.75 C 0.84375 -2.75 0.90625 -2.703125 0.90625 -2.359375 L 0.90625 -0.546875 C 0.90625 -0.25 0.84375 -0.25 0.390625 -0.25 L 0.390625 0 C 0.40625 0 0.890625 -0.03125 1.171875 -0.03125 C 1.421875 -0.03125 1.671875 -0.015625 1.90625 0 L 1.90625 -0.25 C 1.5 -0.25 1.4375 -0.25 1.4375 -0.546875 L 1.4375 -3.078125 Z M 0.40625 -3 "/>
</g>
<g id="glyph-2-0">
<path d="M 6.5625 -2.296875 C 6.734375 -2.296875 6.921875 -2.296875 6.921875 -2.5 C 6.921875 -2.6875 6.734375 -2.6875 6.5625 -2.6875 L 1.171875 -2.6875 C 1 -2.6875 0.828125 -2.6875 0.828125 -2.5 C 0.828125 -2.296875 1 -2.296875 1.171875 -2.296875 Z M 6.5625 -2.296875 "/>
</g>
<g id="glyph-2-1">
<path d="M 8.3125 -2.296875 C 7.765625 -1.875 7.5 -1.46875 7.421875 -1.328125 C 6.96875 -0.640625 6.890625 -0.015625 6.890625 -0.015625 C 6.890625 0.109375 7.015625 0.109375 7.09375 0.109375 C 7.25 0.109375 7.265625 0.09375 7.3125 -0.09375 C 7.53125 -1.0625 8.125 -1.90625 9.25 -2.359375 C 9.375 -2.40625 9.40625 -2.421875 9.40625 -2.5 C 9.40625 -2.5625 9.34375 -2.59375 9.328125 -2.609375 C 8.875 -2.765625 7.671875 -3.265625 7.296875 -4.9375 C 7.265625 -5.0625 7.25 -5.09375 7.09375 -5.09375 C 7.015625 -5.09375 6.890625 -5.09375 6.890625 -4.96875 C 6.890625 -4.953125 6.984375 -4.328125 7.390625 -3.65625 C 7.59375 -3.359375 7.890625 -3.015625 8.3125 -2.6875 L 0.90625 -2.6875 C 0.734375 -2.6875 0.546875 -2.6875 0.546875 -2.5 C 0.546875 -2.296875 0.734375 -2.296875 0.90625 -2.296875 Z M 8.3125 -2.296875 "/>
</g>
</g>
</defs>
<g fill="rgb(0%, 0%, 0%)" fill-opacity="1">
<use xlink:href="#glyph-0-0" x="-0.283984" y="11.133984"/>
</g>
<g fill="rgb(0%, 0%, 0%)" fill-opacity="1">
<use xlink:href="#glyph-1-0" x="17.878116" y="5.491014"/>
</g>
<g fill="rgb(0%, 0%, 0%)" fill-opacity="1">
<use xlink:href="#glyph-2-0" x="9.948816" y="11.133984"/>
</g>
<g fill="rgb(0%, 0%, 0%)" fill-opacity="1">
<use xlink:href="#glyph-2-0" x="14.934759" y="11.133984"/>
</g>
<g fill="rgb(0%, 0%, 0%)" fill-opacity="1">
<use xlink:href="#glyph-2-1" x="19.911715" y="11.133984"/>
</g>
<g fill="rgb(0%, 0%, 0%)" fill-opacity="1">
<use xlink:href="#glyph-0-1" x="32.646816" y="11.133984"/>
</g>
</svg>
