<?xml version="1.0" encoding="UTF-8"?>
<svg xmlns="http://www.w3.org/2000/svg" xmlns:xlink="http://www.w3.org/1999/xlink" width="29" height="8" viewBox="0 0 29 8">
<defs>
<g>
<g id="glyph-0-0">
<path d="M 7.359375 -1.46875 C 6.984375 -1.09375 6.484375 -0.796875 6.046875 -0.703125 L 9.953125 -7.015625 C 9.96875 -7.03125 9.96875 -7.046875 9.96875 -7.0625 C 9.96875 -7.09375 9.953125 -7.125 9.9375 -7.125 C 9.921875 -7.140625 9.90625 -7.140625 9.890625 -7.140625 L 9.78125 -7.140625 C 9.75 -7.140625 9.734375 -7.125 9.703125 -7.109375 L 9.609375 -6.96875 C 9 -6.546875 8.390625 -6.09375 7.796875 -5.65625 C 7.03125 -5.078125 6.265625 -4.46875 5.578125 -3.84375 C 5.21875 -4.28125 4.640625 -4.53125 3.78125 -4.53125 C 3.359375 -4.53125 2.78125 -4.34375 2.5 -3.953125 C 2.078125 -3.34375 1.890625 -2.8125 1.890625 -2.375 C 1.890625 -1.734375 2.28125 -1.265625 2.921875 -0.953125 C 2.375 -0.484375 1.734375 -0.140625 1.234375 -0.140625 C 0.84375 -0.140625 0.59375 -0.296875 0.59375 -0.546875 C 0.59375 -0.625 0.59375 -0.703125 0.640625 -0.78125 C 0.703125 -0.703125 0.796875 -0.65625 0.90625 -0.65625 C 1.171875 -0.65625 1.46875 -0.859375 1.46875 -1.046875 C 1.46875 -1.296875 1.3125 -1.390625 1.140625 -1.390625 C 0.921875 -1.390625 0.6875 -1.265625 0.5625 -1.09375 C 0.421875 -0.875 0.34375 -0.6875 0.34375 -0.515625 C 0.34375 -0.15625 0.6875 0.078125 1.203125 0.078125 C 1.796875 0.078125 2.546875 -0.3125 3.15625 -0.84375 C 3.671875 -0.640625 4.3125 -0.515625 5.015625 -0.46875 L 4.78125 -0.125 C 4.765625 -0.125 4.75 -0.09375 4.75 -0.078125 C 4.75 -0.0625 4.78125 -0.03125 4.796875 -0.015625 C 4.8125 0 4.828125 0 4.84375 0 L 5.5625 0 C 5.59375 0 5.625 -0.015625 5.625 -0.046875 L 5.890625 -0.453125 C 6.40625 -0.53125 7.03125 -0.859375 7.46875 -1.3125 C 7.484375 -1.328125 7.5 -1.359375 7.5 -1.390625 L 7.5 -1.421875 C 7.5 -1.453125 7.484375 -1.484375 7.453125 -1.5 C 7.453125 -1.5 7.4375 -1.5 7.421875 -1.5 C 7.40625 -1.5 7.375 -1.5 7.359375 -1.46875 Z M 6.0625 -1.953125 C 6.078125 -2.046875 6.078125 -2.15625 6.078125 -2.265625 C 6.078125 -2.796875 5.96875 -3.28125 5.71875 -3.65625 C 6.421875 -4.3125 7.203125 -4.921875 8 -5.515625 C 8.390625 -5.796875 8.78125 -6.078125 9.1875 -6.359375 Z M 2.90625 -3.734375 C 3.125 -4.03125 3.5 -4.3125 3.75 -4.3125 C 4.53125 -4.3125 5.046875 -4.078125 5.390625 -3.671875 C 4.71875 -3.078125 4.140625 -2.4375 3.6875 -1.796875 C 3.53125 -1.578125 3.34375 -1.359375 3.15625 -1.171875 C 2.65625 -1.4375 2.359375 -1.828125 2.359375 -2.328125 C 2.359375 -2.71875 2.53125 -3.1875 2.90625 -3.734375 Z M 3.921875 -1.6875 C 4.359375 -2.3125 4.90625 -2.90625 5.515625 -3.484375 C 5.71875 -3.140625 5.796875 -2.71875 5.796875 -2.234375 C 5.796875 -2 5.78125 -1.75 5.734375 -1.5 L 5.15625 -0.6875 C 4.46875 -0.734375 3.859375 -0.84375 3.375 -1.0625 C 3.59375 -1.25 3.78125 -1.46875 3.921875 -1.6875 Z M 3.921875 -1.6875 "/>
</g>
<g id="glyph-0-1">
<path d="M 6.40625 -7.0625 C 5.703125 -7.0625 4.890625 -6.875 4.03125 -6.4375 C 3.3125 -6.078125 2.609375 -5.53125 2.171875 -4.9375 C 1.828125 -4.453125 1.625 -3.96875 1.625 -3.5625 C 1.625 -3.484375 1.640625 -3.421875 1.640625 -3.375 C 1.71875 -2.9375 2.046875 -2.6875 2.59375 -2.6875 C 2.9375 -2.6875 3.359375 -2.796875 3.765625 -3 C 4.140625 -3.203125 4.5 -3.484375 4.71875 -3.78125 C 5.109375 -4.34375 5.28125 -4.875 5.28125 -5.328125 C 5.28125 -5.421875 5.265625 -5.515625 5.25 -5.609375 C 5.25 -5.65625 5.203125 -5.6875 5.15625 -5.6875 C 5.140625 -5.671875 5.109375 -5.65625 5.078125 -5.640625 C 5.046875 -5.625 5.03125 -5.609375 5.03125 -5.578125 L 5.03125 -5.5 C 5.03125 -5.078125 4.625 -4.5 4.203125 -3.890625 C 4.015625 -3.625 3.78125 -3.375 3.484375 -3.1875 C 3.1875 -2.984375 2.875 -2.90625 2.625 -2.90625 C 2.1875 -2.90625 1.9375 -3.109375 1.890625 -3.421875 C 1.890625 -3.46875 1.890625 -3.515625 1.890625 -3.546875 C 1.890625 -3.90625 2.078125 -4.359375 2.421875 -4.828125 C 2.8125 -5.390625 3.453125 -5.90625 4.15625 -6.265625 C 4.9375 -6.65625 5.71875 -6.84375 6.359375 -6.84375 C 7.109375 -6.84375 7.75 -6.734375 8.1875 -6.453125 C 6.5625 -5.25 5.421875 -3.625 4.359375 -2.140625 C 3.640625 -1.109375 2.578125 -0.078125 1.75 -0.078125 C 1.0625 -0.078125 0.546875 -0.265625 0.546875 -0.65625 C 0.546875 -0.75 0.578125 -0.84375 0.625 -0.953125 C 0.6875 -0.84375 0.796875 -0.796875 0.921875 -0.796875 C 1.171875 -0.796875 1.46875 -1 1.46875 -1.1875 C 1.46875 -1.4375 1.328125 -1.53125 1.140625 -1.53125 C 0.9375 -1.53125 0.703125 -1.40625 0.578125 -1.234375 C 0.40625 -1 0.34375 -0.796875 0.34375 -0.625 C 0.34375 -0.09375 0.984375 0.140625 1.703125 0.140625 C 2.84375 0.140625 4.40625 -0.890625 5.21875 -2.046875 C 5.4375 -2.359375 5.671875 -2.6875 5.921875 -3.015625 C 6.0625 -2.96875 6.21875 -2.953125 6.375 -2.953125 C 6.734375 -2.953125 7.171875 -3.09375 7.59375 -3.328125 C 7.75 -3.234375 7.859375 -3.09375 7.921875 -2.9375 C 7.9375 -2.859375 7.953125 -2.78125 7.953125 -2.6875 C 7.953125 -2.359375 7.78125 -1.90625 7.453125 -1.453125 C 7.203125 -1.109375 6.9375 -0.78125 6.5625 -0.515625 C 6.25 -0.28125 5.90625 -0.140625 5.65625 -0.140625 C 5.328125 -0.140625 5.109375 -0.265625 5.0625 -0.46875 C 5.046875 -0.515625 5.046875 -0.5625 5.046875 -0.609375 C 5.046875 -0.8125 5.140625 -1.0625 5.34375 -1.34375 C 5.46875 -1.53125 5.71875 -1.6875 5.953125 -1.796875 C 6.265625 -1.9375 6.546875 -1.984375 6.796875 -1.984375 C 6.828125 -1.984375 6.84375 -2 6.875 -2.015625 L 6.90625 -2.078125 C 6.921875 -2.078125 6.921875 -2.109375 6.921875 -2.125 C 6.921875 -2.15625 6.875 -2.203125 6.84375 -2.203125 C 6.546875 -2.203125 6.21875 -2.140625 5.875 -1.984375 C 5.609375 -1.859375 5.3125 -1.671875 5.15625 -1.453125 C 4.9375 -1.140625 4.828125 -0.84375 4.828125 -0.578125 C 4.828125 -0.515625 4.828125 -0.453125 4.84375 -0.390625 C 4.9375 -0.078125 5.21875 0.078125 5.609375 0.078125 C 5.984375 0.078125 6.4375 -0.078125 6.875 -0.34375 C 7.3125 -0.609375 7.703125 -0.984375 7.96875 -1.34375 C 8.265625 -1.78125 8.421875 -2.1875 8.421875 -2.546875 C 8.421875 -2.71875 8.390625 -2.890625 8.3125 -3.03125 C 8.21875 -3.234375 8.0625 -3.390625 7.859375 -3.515625 C 8.28125 -3.78125 8.640625 -4.125 8.890625 -4.484375 C 9.140625 -4.84375 9.25 -5.171875 9.25 -5.46875 C 9.25 -5.796875 9.109375 -6.09375 8.875 -6.3125 C 8.828125 -6.375 8.78125 -6.421875 8.71875 -6.46875 C 8.859375 -6.59375 8.984375 -6.671875 9.09375 -6.75 C 9.109375 -6.765625 9.125 -6.78125 9.125 -6.8125 L 9.109375 -6.921875 C 9.09375 -6.953125 9.0625 -6.984375 9.015625 -6.984375 C 9.015625 -6.984375 8.984375 -6.984375 8.984375 -6.96875 L 8.46875 -6.640625 C 7.921875 -6.953125 7.203125 -7.0625 6.40625 -7.0625 Z M 6.8125 -3.734375 C 6.6875 -3.734375 6.5625 -3.734375 6.421875 -3.703125 C 7.125 -4.671875 7.859375 -5.625 8.46875 -6.234375 C 8.640625 -6.0625 8.734375 -5.828125 8.734375 -5.5625 C 8.734375 -5.28125 8.625 -4.953125 8.359375 -4.578125 C 8.140625 -4.25 7.859375 -3.921875 7.5 -3.65625 C 7.3125 -3.703125 7.0625 -3.734375 6.8125 -3.734375 Z M 6.390625 -3.296875 C 6.46875 -3.421875 6.515625 -3.453125 6.515625 -3.453125 C 6.59375 -3.515625 6.6875 -3.515625 6.78125 -3.515625 C 6.953125 -3.515625 7.109375 -3.5 7.25 -3.46875 C 6.953125 -3.296875 6.65625 -3.1875 6.421875 -3.1875 C 6.375 -3.1875 6.328125 -3.1875 6.3125 -3.1875 C 6.328125 -3.21875 6.359375 -3.25 6.390625 -3.296875 Z M 6.390625 -3.296875 "/>
</g>
<g id="glyph-0-2">
<path d="M 3.4375 -0.875 C 3.359375 -0.953125 3.3125 -1.046875 3.3125 -1.171875 C 3.3125 -1.328125 3.375 -1.546875 3.546875 -1.78125 C 3.703125 -2.015625 3.90625 -2.25 4.171875 -2.4375 C 4.390625 -2.578125 4.609375 -2.6875 4.78125 -2.6875 C 5.125 -2.6875 5.3125 -2.515625 5.328125 -2.265625 L 5.328125 -2.21875 C 5.328125 -1.90625 5.125 -1.515625 4.828125 -1.09375 C 4.625 -0.8125 4.390625 -0.53125 4.0625 -0.328125 C 3.765625 -0.125 3.4375 -0.03125 3.203125 -0.03125 C 2.609375 -0.03125 2.34375 -0.375 2.34375 -0.859375 L 2.34375 -0.96875 C 2.40625 -1.71875 2.96875 -2.65625 3.625 -3.5625 C 4.234375 -3.65625 4.890625 -3.8125 5.578125 -4.09375 C 6.375 -4.390625 7.25 -4.875 7.71875 -5.546875 C 7.953125 -5.875 8.09375 -6.203125 8.09375 -6.484375 C 8.09375 -6.53125 8.09375 -6.578125 8.078125 -6.625 C 8.03125 -6.9375 7.765625 -7.125 7.375 -7.125 C 6.703125 -7.125 5.828125 -6.625 5.09375 -6.0625 C 4.171875 -5.359375 3.40625 -4.53125 2.8125 -3.71875 C 2.703125 -3.703125 2.59375 -3.703125 2.484375 -3.703125 C 1.765625 -3.703125 1.171875 -3.875 0.890625 -4.25 C 0.8125 -4.359375 0.765625 -4.5 0.765625 -4.671875 C 0.765625 -4.921875 0.875 -5.21875 1.09375 -5.53125 C 1.28125 -5.796875 1.5625 -6.0625 1.875 -6.234375 C 2.25 -6.4375 2.625 -6.515625 2.9375 -6.515625 C 2.953125 -6.515625 2.984375 -6.53125 3 -6.546875 C 3.015625 -6.59375 3.046875 -6.625 3.046875 -6.65625 C 3.046875 -6.703125 3.015625 -6.734375 2.96875 -6.734375 C 2.5625 -6.734375 2.09375 -6.65625 1.59375 -6.421875 C 1.203125 -6.234375 0.796875 -5.96875 0.5625 -5.625 C 0.34375 -5.328125 0.265625 -5.03125 0.265625 -4.78125 C 0.265625 -4.53125 0.359375 -4.28125 0.515625 -4.109375 C 0.921875 -3.65625 1.640625 -3.484375 2.4375 -3.484375 L 2.65625 -3.484375 C 2.078125 -2.671875 1.71875 -1.84375 1.71875 -1.15625 C 1.71875 -1.078125 1.71875 -1 1.734375 -0.9375 C 1.796875 -0.25 2.296875 0.1875 3.15625 0.1875 C 3.515625 0.1875 3.9375 0.0625 4.359375 -0.15625 C 4.75 -0.375 5.109375 -0.671875 5.34375 -1 C 5.609375 -1.390625 5.765625 -1.78125 5.765625 -2.109375 C 5.765625 -2.1875 5.765625 -2.25 5.734375 -2.328125 C 5.640625 -2.703125 5.296875 -2.90625 4.8125 -2.90625 C 4.578125 -2.90625 4.28125 -2.765625 4.03125 -2.609375 C 3.734375 -2.390625 3.484375 -2.140625 3.296875 -1.875 C 3.125 -1.625 3.03125 -1.375 3.03125 -1.171875 C 3.03125 -0.984375 3.109375 -0.8125 3.28125 -0.703125 C 3.296875 -0.703125 3.296875 -0.703125 3.3125 -0.703125 C 3.3125 -0.703125 3.34375 -0.703125 3.34375 -0.703125 L 3.421875 -0.734375 L 3.453125 -0.75 C 3.453125 -0.78125 3.46875 -0.78125 3.46875 -0.8125 C 3.46875 -0.84375 3.453125 -0.859375 3.4375 -0.875 Z M 3.453125 -0.75 C 3.453125 -0.765625 3.46875 -0.78125 3.46875 -0.8125 C 3.46875 -0.8125 3.46875 -0.828125 3.453125 -0.84375 C 3.453125 -0.84375 3.453125 -0.828125 3.453125 -0.75 Z M 7.34375 -6.890625 C 7.640625 -6.890625 7.796875 -6.765625 7.828125 -6.5625 L 7.828125 -6.46875 C 7.828125 -6.234375 7.703125 -5.953125 7.484375 -5.625 C 7.046875 -5.03125 6.234375 -4.5625 5.46875 -4.265625 C 4.890625 -4.046875 4.328125 -3.890625 3.796875 -3.8125 C 4.3125 -4.53125 4.859375 -5.25 5.609375 -5.90625 C 6.1875 -6.421875 6.84375 -6.890625 7.34375 -6.890625 Z M 7.34375 -6.890625 "/>
</g>
</g>
</defs>
<g fill="rgb(0%, 0%, 0%)" fill-opacity="1">
<use xlink:href="#glyph-0-0" x="0.716016" y="7.766016"/>
</g>
<g fill="rgb(0%, 0%, 0%)" fill-opacity="1">
<use xlink:href="#glyph-0-1" x="10.994143" y="7.766016"/>
</g>
<g fill="rgb(0%, 0%, 0%)" fill-opacity="1">
<use xlink:href="#glyph-0-2" x="20.444144" y="7.766016"/>
</g>
</svg>
