<?xml version="1.0" encoding="UTF-8"?>
<svg xmlns="http://www.w3.org/2000/svg" xmlns:xlink="http://www.w3.org/1999/xlink" width="58" height="23" viewBox="0 0 58 23">
<defs>
<g>
<g id="glyph-0-0">
<path d="M 3.296875 2.390625 C 3.296875 2.359375 3.296875 2.34375 3.125 2.171875 C 1.890625 0.921875 1.5625 -0.96875 1.5625 -2.5 C 1.5625 -4.234375 1.9375 -5.96875 3.171875 -7.203125 C 3.296875 -7.328125 3.296875 -7.34375 3.296875 -7.375 C 3.296875 -7.453125 3.265625 -7.484375 3.203125 -7.484375 C 3.09375 -7.484375 2.203125 -6.796875 1.609375 -5.53125 C 1.109375 -4.4375 0.984375 -3.328125 0.984375 -2.5 C 0.984375 -1.71875 1.09375 -0.515625 1.640625 0.625 C 2.25 1.84375 3.09375 2.5 3.203125 2.5 C 3.265625 2.5 3.296875 2.46875 3.296875 2.390625 Z M 3.296875 2.390625 "/>
</g>
<g id="glyph-0-1">
<path d="M 2.875 -2.5 C 2.875 -3.265625 2.765625 -4.46875 2.21875 -5.609375 C 1.625 -6.828125 0.765625 -7.484375 0.671875 -7.484375 C 0.609375 -7.484375 0.5625 -7.4375 0.5625 -7.375 C 0.5625 -7.34375 0.5625 -7.328125 0.75 -7.140625 C 1.734375 -6.15625 2.296875 -4.578125 2.296875 -2.5 C 2.296875 -0.78125 1.9375 0.96875 0.703125 2.21875 C 0.5625 2.34375 0.5625 2.359375 0.5625 2.390625 C 0.5625 2.453125 0.609375 2.5 0.671875 2.5 C 0.765625 2.5 1.671875 1.8125 2.25 0.546875 C 2.765625 -0.546875 2.875 -1.65625 2.875 -2.5 Z M 2.875 -2.5 "/>
</g>
<g id="glyph-0-2">
<path d="M 2.546875 2.5 L 2.546875 2.09375 L 1.578125 2.09375 L 1.578125 -7.078125 L 2.546875 -7.078125 L 2.546875 -7.484375 L 1.171875 -7.484375 L 1.171875 2.5 Z M 2.546875 2.5 "/>
</g>
<g id="glyph-0-3">
<path d="M 1.578125 -7.484375 L 0.21875 -7.484375 L 0.21875 -7.078125 L 1.1875 -7.078125 L 1.1875 2.09375 L 0.21875 2.09375 L 0.21875 2.5 L 1.578125 2.5 Z M 1.578125 -7.484375 "/>
</g>
<g id="glyph-1-0">
<path d="M 9.234375 -6.046875 C 9.328125 -6.40625 9.34375 -6.5 10.09375 -6.5 C 10.3125 -6.5 10.40625 -6.5 10.40625 -6.703125 C 10.40625 -6.8125 10.3125 -6.8125 10.140625 -6.8125 L 8.828125 -6.8125 C 8.5625 -6.8125 8.546875 -6.8125 8.4375 -6.625 L 4.796875 -0.9375 L 4.015625 -6.578125 C 3.984375 -6.8125 3.96875 -6.8125 3.703125 -6.8125 L 2.34375 -6.8125 C 2.15625 -6.8125 2.046875 -6.8125 2.046875 -6.625 C 2.046875 -6.5 2.140625 -6.5 2.328125 -6.5 C 2.46875 -6.5 2.640625 -6.484375 2.765625 -6.484375 C 2.921875 -6.453125 2.984375 -6.4375 2.984375 -6.3125 C 2.984375 -6.28125 2.96875 -6.25 2.9375 -6.125 L 1.671875 -1.0625 C 1.578125 -0.65625 1.40625 -0.34375 0.59375 -0.3125 C 0.546875 -0.3125 0.421875 -0.296875 0.421875 -0.125 C 0.421875 -0.03125 0.484375 0 0.5625 0 C 0.875 0 1.21875 -0.03125 1.5625 -0.03125 C 1.890625 -0.03125 2.25 0 2.578125 0 C 2.625 0 2.765625 0 2.765625 -0.203125 C 2.765625 -0.3125 2.65625 -0.3125 2.578125 -0.3125 C 2.015625 -0.3125 1.90625 -0.515625 1.90625 -0.75 C 1.90625 -0.8125 1.90625 -0.875 1.9375 -0.984375 L 3.296875 -6.40625 L 3.3125 -6.40625 L 4.171875 -0.234375 C 4.1875 -0.109375 4.203125 0 4.3125 0 C 4.421875 0 4.484375 -0.109375 4.53125 -0.171875 L 8.5625 -6.484375 L 8.578125 -6.484375 L 7.140625 -0.78125 C 7.046875 -0.390625 7.03125 -0.3125 6.234375 -0.3125 C 6.078125 -0.3125 5.96875 -0.3125 5.96875 -0.125 C 5.96875 0 6.078125 0 6.109375 0 C 6.390625 0 7.0625 -0.03125 7.34375 -0.03125 C 7.75 -0.03125 8.1875 0 8.59375 0 C 8.65625 0 8.78125 0 8.78125 -0.203125 C 8.78125 -0.3125 8.6875 -0.3125 8.5 -0.3125 C 8.140625 -0.3125 7.859375 -0.3125 7.859375 -0.484375 C 7.859375 -0.53125 7.859375 -0.546875 7.90625 -0.734375 Z M 9.234375 -6.046875 "/>
</g>
<g id="glyph-2-0">
<path d="M 1.578125 -7.125 C 1.578125 -7.296875 1.578125 -7.484375 1.390625 -7.484375 C 1.1875 -7.484375 1.1875 -7.296875 1.1875 -7.125 L 1.1875 2.140625 C 1.1875 2.3125 1.1875 2.5 1.390625 2.5 C 1.578125 2.5 1.578125 2.3125 1.578125 2.140625 Z M 1.578125 -7.125 "/>
</g>
<g id="glyph-2-1">
<path d="M 2.828125 -6.15625 C 2.828125 -6.546875 3.078125 -7.1875 4.171875 -7.25 C 4.21875 -7.265625 4.25 -7.3125 4.25 -7.359375 C 4.25 -7.484375 4.171875 -7.484375 4.0625 -7.484375 C 3.078125 -7.484375 2.15625 -6.96875 2.15625 -6.234375 L 2.15625 -3.953125 C 2.15625 -3.5625 2.15625 -3.25 1.75 -2.921875 C 1.40625 -2.625 1.03125 -2.609375 0.8125 -2.609375 C 0.75 -2.59375 0.71875 -2.546875 0.71875 -2.5 C 0.71875 -2.390625 0.78125 -2.390625 0.875 -2.375 C 1.53125 -2.34375 2.015625 -1.984375 2.125 -1.5 C 2.15625 -1.390625 2.15625 -1.359375 2.15625 -1 L 2.15625 0.96875 C 2.15625 1.390625 2.15625 1.703125 2.625 2.078125 C 3.015625 2.375 3.671875 2.5 4.0625 2.5 C 4.171875 2.5 4.25 2.5 4.25 2.375 C 4.25 2.28125 4.203125 2.28125 4.09375 2.265625 C 3.46875 2.234375 2.984375 1.90625 2.84375 1.40625 C 2.828125 1.3125 2.828125 1.296875 2.828125 0.9375 L 2.828125 -1.15625 C 2.828125 -1.609375 2.734375 -1.78125 2.421875 -2.109375 C 2.21875 -2.3125 1.921875 -2.40625 1.640625 -2.5 C 2.46875 -2.71875 2.828125 -3.1875 2.828125 -3.765625 Z M 2.828125 -6.15625 "/>
</g>
<g id="glyph-2-2">
<path d="M 2.15625 1.171875 C 2.15625 1.5625 1.890625 2.203125 0.8125 2.265625 C 0.75 2.28125 0.71875 2.328125 0.71875 2.375 C 0.71875 2.5 0.828125 2.5 0.921875 2.5 C 1.890625 2.5 2.8125 2 2.828125 1.25 L 2.828125 -1.03125 C 2.828125 -1.421875 2.828125 -1.734375 3.21875 -2.0625 C 3.5625 -2.359375 3.953125 -2.375 4.171875 -2.375 C 4.21875 -2.390625 4.25 -2.4375 4.25 -2.5 C 4.25 -2.59375 4.203125 -2.59375 4.09375 -2.609375 C 3.4375 -2.640625 2.953125 -3 2.84375 -3.484375 C 2.828125 -3.59375 2.828125 -3.625 2.828125 -3.984375 L 2.828125 -5.953125 C 2.828125 -6.375 2.828125 -6.6875 2.34375 -7.0625 C 1.9375 -7.375 1.25 -7.484375 0.921875 -7.484375 C 0.828125 -7.484375 0.71875 -7.484375 0.71875 -7.359375 C 0.71875 -7.265625 0.78125 -7.265625 0.875 -7.25 C 1.5 -7.21875 2 -6.890625 2.125 -6.390625 C 2.15625 -6.296875 2.15625 -6.28125 2.15625 -5.921875 L 2.15625 -3.828125 C 2.15625 -3.375 2.234375 -3.203125 2.546875 -2.875 C 2.765625 -2.671875 3.046875 -2.578125 3.328125 -2.5 C 2.515625 -2.265625 2.15625 -1.796875 2.15625 -1.21875 Z M 2.15625 1.171875 "/>
</g>
<g id="glyph-2-3">
<path d="M 3.265625 -7.09375 C 3.3125 -7.203125 3.3125 -7.234375 3.3125 -7.28125 C 3.3125 -7.390625 3.234375 -7.484375 3.125 -7.484375 C 3.03125 -7.484375 2.953125 -7.421875 2.890625 -7.25 L 1.140625 -2.671875 C 1.125 -2.609375 1.09375 -2.546875 1.09375 -2.5 C 1.09375 -2.46875 1.09375 -2.4375 1.140625 -2.328125 L 2.890625 2.25 C 2.9375 2.359375 2.984375 2.5 3.125 2.5 C 3.234375 2.5 3.3125 2.40625 3.3125 2.296875 C 3.3125 2.265625 3.3125 2.25 3.265625 2.140625 L 1.5 -2.5 Z M 3.265625 -7.09375 "/>
</g>
<g id="glyph-2-4">
<path d="M 2.71875 -2.328125 C 2.765625 -2.4375 2.765625 -2.46875 2.765625 -2.5 C 2.765625 -2.515625 2.765625 -2.546875 2.71875 -2.65625 L 0.984375 -7.25 C 0.921875 -7.421875 0.859375 -7.484375 0.75 -7.484375 C 0.640625 -7.484375 0.546875 -7.390625 0.546875 -7.28125 C 0.546875 -7.25 0.546875 -7.234375 0.59375 -7.125 L 2.359375 -2.5 L 0.59375 2.109375 C 0.546875 2.21875 0.546875 2.25 0.546875 2.296875 C 0.546875 2.40625 0.640625 2.5 0.75 2.5 C 0.875 2.5 0.921875 2.390625 0.953125 2.296875 Z M 2.71875 -2.328125 "/>
</g>
<g id="glyph-2-5">
<path d="M 1.71875 -7.140625 C 1.71875 -7.296875 1.71875 -7.484375 1.515625 -7.484375 C 1.3125 -7.484375 1.3125 -7.25 1.3125 -7.109375 L 1.3125 2.125 C 1.3125 2.28125 1.3125 2.5 1.515625 2.5 C 1.71875 2.5 1.71875 2.3125 1.71875 2.15625 Z M 3.65625 -7.109375 C 3.65625 -7.265625 3.65625 -7.484375 3.453125 -7.484375 C 3.265625 -7.484375 3.265625 -7.296875 3.265625 -7.140625 L 3.265625 2.15625 C 3.265625 2.3125 3.265625 2.5 3.453125 2.5 C 3.65625 2.5 3.65625 2.265625 3.65625 2.125 Z M 3.65625 -7.109375 "/>
</g>
</g>
</defs>
<g fill="rgb(0%, 0%, 0%)" fill-opacity="1">
<use xlink:href="#glyph-0-0" x="-0.307031" y="8.173"/>
</g>
<g fill="rgb(0%, 0%, 0%)" fill-opacity="1">
<use xlink:href="#glyph-1-0" x="3.571879" y="8.173"/>
</g>
<g fill="rgb(0%, 0%, 0%)" fill-opacity="1">
<use xlink:href="#glyph-0-1" x="14.326979" y="8.173"/>
</g>
<g fill="rgb(0%, 0%, 0%)" fill-opacity="1">
<use xlink:href="#glyph-2-0" x="19.853149" y="8.173"/>
</g>
<g fill="rgb(0%, 0%, 0%)" fill-opacity="1">
<use xlink:href="#glyph-1-0" x="22.625029" y="8.173"/>
</g>
<g fill="rgb(0%, 0%, 0%)" fill-opacity="1">
<use xlink:href="#glyph-2-0" x="33.380129" y="8.173"/>
</g>
<g fill="rgb(0%, 0%, 0%)" fill-opacity="1">
<use xlink:href="#glyph-2-1" x="37.799267" y="8.173"/>
</g>
<g fill="rgb(0%, 0%, 0%)" fill-opacity="1">
<use xlink:href="#glyph-1-0" x="42.785209" y="8.173"/>
</g>
<g fill="rgb(0%, 0%, 0%)" fill-opacity="1">
<use xlink:href="#glyph-2-2" x="53.540309" y="8.173"/>
</g>
<g fill="rgb(0%, 0%, 0%)" fill-opacity="1">
<use xlink:href="#glyph-2-3" x="-0.306991" y="20.125"/>
</g>
<g fill="rgb(0%, 0%, 0%)" fill-opacity="1">
<use xlink:href="#glyph-1-0" x="3.571919" y="20.125"/>
</g>
<g fill="rgb(0%, 0%, 0%)" fill-opacity="1">
<use xlink:href="#glyph-2-4" x="14.327019" y="20.125"/>
</g>
<g fill="rgb(0%, 0%, 0%)" fill-opacity="1">
<use xlink:href="#glyph-2-5" x="19.853196" y="20.125"/>
</g>
<g fill="rgb(0%, 0%, 0%)" fill-opacity="1">
<use xlink:href="#glyph-1-0" x="24.839119" y="20.125"/>
</g>
<g fill="rgb(0%, 0%, 0%)" fill-opacity="1">
<use xlink:href="#glyph-2-5" x="35.594219" y="20.125"/>
</g>
<g fill="rgb(0%, 0%, 0%)" fill-opacity="1">
<use xlink:href="#glyph-0-2" x="42.227029" y="20.125"/>
</g>
<g fill="rgb(0%, 0%, 0%)" fill-opacity="1">
<use xlink:href="#glyph-1-0" x="44.998909" y="20.125"/>
</g>
<g fill="rgb(0%, 0%, 0%)" fill-opacity="1">
<use xlink:href="#glyph-0-3" x="55.754009" y="20.125"/>
</g>
</svg>
